<mxfile host="app.diagrams.net" agent="Mozilla/5.0 (Windows NT 10.0; Win64; x64) AppleWebKit/537.36 (KHTML, like Gecko) Chrome/133.0.0.0 Safari/537.36" version="26.0.16">
  <diagram name="Página-1" id="778LNQ-2vnDJt5TIPBLd">
    <mxGraphModel dx="954" dy="598" grid="1" gridSize="10" guides="1" tooltips="1" connect="1" arrows="1" fold="1" page="1" pageScale="1" pageWidth="827" pageHeight="1169" math="0" shadow="0">
      <root>
        <mxCell id="0" />
        <mxCell id="1" parent="0" />
        <mxCell id="DbN6F26WuIVYV3Vxje3u-1" value="Sensor Temperatura e Umidade (DHT22)" style="rounded=1;whiteSpace=wrap;html=1;" vertex="1" parent="1">
          <mxGeometry x="100" y="90" width="120" height="60" as="geometry" />
        </mxCell>
        <mxCell id="DbN6F26WuIVYV3Vxje3u-2" value="Display OLED (SSD1306)" style="rounded=1;whiteSpace=wrap;html=1;" vertex="1" parent="1">
          <mxGeometry x="100" y="202.5" width="120" height="65" as="geometry" />
        </mxCell>
        <mxCell id="DbN6F26WuIVYV3Vxje3u-4" value="Raspberry Pi &lt;br&gt;Pico W&amp;nbsp;" style="rounded=1;whiteSpace=wrap;html=1;" vertex="1" parent="1">
          <mxGeometry x="330" y="195" width="130" height="85" as="geometry" />
        </mxCell>
        <mxCell id="DbN6F26WuIVYV3Vxje3u-5" value="Câmera&amp;nbsp;&lt;div&gt;(ArduCam OV2640)&lt;/div&gt;" style="rounded=1;whiteSpace=wrap;html=1;" vertex="1" parent="1">
          <mxGeometry x="590" y="207.5" width="140" height="60" as="geometry" />
        </mxCell>
        <mxCell id="DbN6F26WuIVYV3Vxje3u-7" value="" style="endArrow=classic;startArrow=classic;html=1;rounded=0;entryX=0;entryY=0;entryDx=0;entryDy=0;exitX=1;exitY=0.5;exitDx=0;exitDy=0;" edge="1" parent="1" source="DbN6F26WuIVYV3Vxje3u-1" target="DbN6F26WuIVYV3Vxje3u-4">
          <mxGeometry width="50" height="50" relative="1" as="geometry">
            <mxPoint x="390" y="420" as="sourcePoint" />
            <mxPoint x="440" y="370" as="targetPoint" />
          </mxGeometry>
        </mxCell>
        <mxCell id="DbN6F26WuIVYV3Vxje3u-8" value="I2C" style="edgeLabel;html=1;align=center;verticalAlign=middle;resizable=0;points=[];" vertex="1" connectable="0" parent="DbN6F26WuIVYV3Vxje3u-7">
          <mxGeometry x="-0.0556" y="3" relative="1" as="geometry">
            <mxPoint as="offset" />
          </mxGeometry>
        </mxCell>
        <mxCell id="DbN6F26WuIVYV3Vxje3u-9" value="" style="endArrow=classic;startArrow=classic;html=1;rounded=0;exitX=1;exitY=0.5;exitDx=0;exitDy=0;" edge="1" parent="1" source="DbN6F26WuIVYV3Vxje3u-4" target="DbN6F26WuIVYV3Vxje3u-5">
          <mxGeometry width="50" height="50" relative="1" as="geometry">
            <mxPoint x="530" y="280" as="sourcePoint" />
            <mxPoint x="710" y="280" as="targetPoint" />
          </mxGeometry>
        </mxCell>
        <mxCell id="DbN6F26WuIVYV3Vxje3u-10" value="SPI" style="edgeLabel;html=1;align=center;verticalAlign=middle;resizable=0;points=[];" vertex="1" connectable="0" parent="DbN6F26WuIVYV3Vxje3u-9">
          <mxGeometry x="-0.0556" y="3" relative="1" as="geometry">
            <mxPoint as="offset" />
          </mxGeometry>
        </mxCell>
        <mxCell id="DbN6F26WuIVYV3Vxje3u-11" value="" style="endArrow=classic;startArrow=classic;html=1;rounded=0;entryX=1;entryY=0.5;entryDx=0;entryDy=0;exitX=0;exitY=0.5;exitDx=0;exitDy=0;" edge="1" parent="1" source="DbN6F26WuIVYV3Vxje3u-4" target="DbN6F26WuIVYV3Vxje3u-2">
          <mxGeometry width="50" height="50" relative="1" as="geometry">
            <mxPoint x="160" y="235" as="sourcePoint" />
            <mxPoint x="340" y="235" as="targetPoint" />
          </mxGeometry>
        </mxCell>
        <mxCell id="DbN6F26WuIVYV3Vxje3u-12" value="I2C" style="edgeLabel;html=1;align=center;verticalAlign=middle;resizable=0;points=[];" vertex="1" connectable="0" parent="DbN6F26WuIVYV3Vxje3u-11">
          <mxGeometry x="-0.0556" y="3" relative="1" as="geometry">
            <mxPoint as="offset" />
          </mxGeometry>
        </mxCell>
        <mxCell id="DbN6F26WuIVYV3Vxje3u-13" value="Cloud&lt;br&gt;(IA e Processamento)" style="rounded=1;whiteSpace=wrap;html=1;" vertex="1" parent="1">
          <mxGeometry x="590" y="90" width="150" height="60" as="geometry" />
        </mxCell>
        <mxCell id="DbN6F26WuIVYV3Vxje3u-15" value="" style="endArrow=classic;startArrow=classic;html=1;rounded=0;exitX=1;exitY=0;exitDx=0;exitDy=0;entryX=0;entryY=1;entryDx=0;entryDy=0;" edge="1" parent="1" source="DbN6F26WuIVYV3Vxje3u-4" target="DbN6F26WuIVYV3Vxje3u-13">
          <mxGeometry width="50" height="50" relative="1" as="geometry">
            <mxPoint x="470" y="248" as="sourcePoint" />
            <mxPoint x="660" y="238" as="targetPoint" />
          </mxGeometry>
        </mxCell>
        <mxCell id="DbN6F26WuIVYV3Vxje3u-16" value="WI-FI" style="edgeLabel;html=1;align=center;verticalAlign=middle;resizable=0;points=[];" vertex="1" connectable="0" parent="DbN6F26WuIVYV3Vxje3u-15">
          <mxGeometry x="-0.0556" y="3" relative="1" as="geometry">
            <mxPoint as="offset" />
          </mxGeometry>
        </mxCell>
        <mxCell id="DbN6F26WuIVYV3Vxje3u-17" value="Matriz de LED&lt;br&gt;(WS2812B)" style="rounded=1;whiteSpace=wrap;html=1;" vertex="1" parent="1">
          <mxGeometry x="335" y="50" width="120" height="60" as="geometry" />
        </mxCell>
        <mxCell id="DbN6F26WuIVYV3Vxje3u-20" value="Joystick" style="rounded=1;whiteSpace=wrap;html=1;" vertex="1" parent="1">
          <mxGeometry x="100" y="310" width="120" height="60" as="geometry" />
        </mxCell>
        <mxCell id="DbN6F26WuIVYV3Vxje3u-22" value="" style="endArrow=classic;html=1;rounded=0;entryX=1;entryY=0.5;entryDx=0;entryDy=0;exitX=0;exitY=1;exitDx=0;exitDy=0;" edge="1" parent="1" source="DbN6F26WuIVYV3Vxje3u-4" target="DbN6F26WuIVYV3Vxje3u-20">
          <mxGeometry width="50" height="50" relative="1" as="geometry">
            <mxPoint x="350" y="280" as="sourcePoint" />
            <mxPoint x="400" y="230" as="targetPoint" />
          </mxGeometry>
        </mxCell>
        <mxCell id="DbN6F26WuIVYV3Vxje3u-32" value="ADC + GPIO" style="edgeLabel;html=1;align=center;verticalAlign=middle;resizable=0;points=[];" vertex="1" connectable="0" parent="DbN6F26WuIVYV3Vxje3u-22">
          <mxGeometry x="-0.1592" y="-4" relative="1" as="geometry">
            <mxPoint as="offset" />
          </mxGeometry>
        </mxCell>
        <mxCell id="DbN6F26WuIVYV3Vxje3u-23" value="GPIO (PIO&lt;span style=&quot;background-color: light-dark(#ffffff, var(--ge-dark-color, #121212)); color: light-dark(rgb(0, 0, 0), rgb(255, 255, 255));&quot;&gt;)&lt;/span&gt;" style="endArrow=classic;html=1;rounded=0;exitX=0.5;exitY=0;exitDx=0;exitDy=0;entryX=0.5;entryY=1;entryDx=0;entryDy=0;" edge="1" parent="1" source="DbN6F26WuIVYV3Vxje3u-4" target="DbN6F26WuIVYV3Vxje3u-17">
          <mxGeometry width="50" height="50" relative="1" as="geometry">
            <mxPoint x="350" y="280" as="sourcePoint" />
            <mxPoint x="400" y="230" as="targetPoint" />
          </mxGeometry>
        </mxCell>
        <mxCell id="DbN6F26WuIVYV3Vxje3u-24" value="LED RGB" style="rounded=1;whiteSpace=wrap;html=1;" vertex="1" parent="1">
          <mxGeometry x="590" y="330" width="120" height="60" as="geometry" />
        </mxCell>
        <mxCell id="DbN6F26WuIVYV3Vxje3u-26" value="" style="endArrow=classic;html=1;rounded=0;entryX=0;entryY=0.5;entryDx=0;entryDy=0;exitX=1;exitY=1;exitDx=0;exitDy=0;" edge="1" parent="1" source="DbN6F26WuIVYV3Vxje3u-4" target="DbN6F26WuIVYV3Vxje3u-24">
          <mxGeometry width="50" height="50" relative="1" as="geometry">
            <mxPoint x="340" y="290" as="sourcePoint" />
            <mxPoint x="230" y="350" as="targetPoint" />
          </mxGeometry>
        </mxCell>
        <mxCell id="DbN6F26WuIVYV3Vxje3u-33" value="GPIO" style="edgeLabel;html=1;align=center;verticalAlign=middle;resizable=0;points=[];" vertex="1" connectable="0" parent="DbN6F26WuIVYV3Vxje3u-26">
          <mxGeometry x="-0.0747" y="4" relative="1" as="geometry">
            <mxPoint x="-1" as="offset" />
          </mxGeometry>
        </mxCell>
        <mxCell id="DbN6F26WuIVYV3Vxje3u-27" value="" style="endArrow=classic;html=1;rounded=0;entryX=0.5;entryY=0;entryDx=0;entryDy=0;exitX=0.75;exitY=1;exitDx=0;exitDy=0;" edge="1" parent="1" source="DbN6F26WuIVYV3Vxje3u-4" target="DbN6F26WuIVYV3Vxje3u-28">
          <mxGeometry width="50" height="50" relative="1" as="geometry">
            <mxPoint x="350" y="300" as="sourcePoint" />
            <mxPoint x="240" y="360" as="targetPoint" />
          </mxGeometry>
        </mxCell>
        <mxCell id="DbN6F26WuIVYV3Vxje3u-34" value="GPIO" style="edgeLabel;html=1;align=center;verticalAlign=middle;resizable=0;points=[];" vertex="1" connectable="0" parent="DbN6F26WuIVYV3Vxje3u-27">
          <mxGeometry x="0.0195" y="-2" relative="1" as="geometry">
            <mxPoint as="offset" />
          </mxGeometry>
        </mxCell>
        <mxCell id="DbN6F26WuIVYV3Vxje3u-28" value="Botão (2)" style="rounded=1;whiteSpace=wrap;html=1;" vertex="1" parent="1">
          <mxGeometry x="414" y="380" width="120" height="60" as="geometry" />
        </mxCell>
        <mxCell id="DbN6F26WuIVYV3Vxje3u-30" value="Buzzer (2)" style="rounded=1;whiteSpace=wrap;html=1;" vertex="1" parent="1">
          <mxGeometry x="250" y="380" width="120" height="60" as="geometry" />
        </mxCell>
        <mxCell id="DbN6F26WuIVYV3Vxje3u-35" value="" style="endArrow=classic;html=1;rounded=0;entryX=0.5;entryY=0;entryDx=0;entryDy=0;exitX=0.25;exitY=1;exitDx=0;exitDy=0;" edge="1" parent="1" source="DbN6F26WuIVYV3Vxje3u-4" target="DbN6F26WuIVYV3Vxje3u-30">
          <mxGeometry width="50" height="50" relative="1" as="geometry">
            <mxPoint x="438" y="290" as="sourcePoint" />
            <mxPoint x="484" y="390" as="targetPoint" />
          </mxGeometry>
        </mxCell>
        <mxCell id="DbN6F26WuIVYV3Vxje3u-36" value="GPIO" style="edgeLabel;html=1;align=center;verticalAlign=middle;resizable=0;points=[];" vertex="1" connectable="0" parent="DbN6F26WuIVYV3Vxje3u-35">
          <mxGeometry x="0.0195" y="-2" relative="1" as="geometry">
            <mxPoint as="offset" />
          </mxGeometry>
        </mxCell>
      </root>
    </mxGraphModel>
  </diagram>
</mxfile>
